# File created by Blade
# Date/Time:  Thu Jan 22 16:31:11 2015
# Frame Rate: 120.000 fps
#------------------------------------------------------
:FULLY-SPECIFIED
:DEGREES
439
root 25.896808 18.343782 -1.098797 -2.392692 26.000449 -27.943024
RightUpLeg 15.966169 -9.327315 -30.344188
RightLeg -0.493810 -0.000000 0.000000
RightFoot -15.556455 -12.354893 38.503857
RightToeBase 16.313428 -0.000000 -0.000000
LeftUpLeg -103.850192 30.721616 6.898414
LeftLeg 130.266021 -0.000000 -0.000000
LeftFoot -39.575044 11.619801 -13.070220
LeftToeBase -4.971520 -0.000000 0.000000
Spine 32.460538 -4.193256 -49.138454
RightShoulder -9.816394 3.631320 -49.914359
RightArm 0.474085 42.169276 -4.842379
RightForeArm 1.678204 -0.000000 19.173639
RightHand 12.319341 -0.000000 -47.397486
RightHandThumb1 -24.326973 -0.000000 -32.862282
LeftShoulder -20.325986 32.356579 11.051115
LeftArm 79.431831 -49.820095 -127.158426
LeftForeArm -3.905106 -0.000000 26.026419
LeftHand -30.297814 -0.000000 101.968690
LeftHandThumb1 -26.253704 0.000000 33.147579
Head -1.135133 6.737135 -51.125950
440
root 25.908585 18.333977 -1.093235 -2.310461 26.082789 -27.880115
RightUpLeg 15.979078 -9.281365 -30.383827
RightLeg -0.492614 -0.000000 0.000000
RightFoot -15.653524 -12.476461 38.525255
RightToeBase 16.302994 -0.000000 -0.000000
LeftUpLeg -103.980558 30.646077 6.846127
LeftLeg 130.340794 -0.000000 -0.000000
LeftFoot -39.373195 11.398708 -13.220009
LeftToeBase -5.215435 -0.000000 0.000000
Spine 32.486923 -4.175433 -49.169509
RightShoulder -9.818158 3.591490 -49.884132
RightArm 0.715899 42.313307 -4.828919
RightForeArm 1.612710 -0.000000 19.102438
RightHand 12.365862 -0.000000 -47.332437
RightHandThumb1 -24.326973 -0.000000 -32.862282
LeftShoulder -20.447109 32.528752 11.030255
LeftArm 79.577967 -49.514769 -127.167084
LeftForeArm -3.990013 0.000000 25.790800
LeftHand -30.210561 -0.000000 102.045487
LeftHandThumb1 -26.253704 0.000000 33.147579
Head -1.047865 6.718518 -51.251812
441
root 25.920193 18.326261 -1.086761 -2.231841 26.154364 -27.811960
RightUpLeg 15.982656 -9.205485 -30.422453
RightLeg -0.474899 -0.000000 0.000000
RightFoot -15.748945 -12.600290 38.565651
RightToeBase 16.273240 -0.000000 -0.000000
LeftUpLeg -104.094317 30.589474 6.792290
LeftLeg 130.410988 -0.000000 -0.000000
LeftFoot -39.157905 11.167747 -13.375409
LeftToeBase -5.502028 -0.000000 0.000000
Spine 32.515102 -4.134337 -49.218743
RightShoulder -9.828784 3.616384 -49.878324
RightArm 0.974741 42.416509 -4.713396
RightForeArm 1.335079 -0.000000 19.098264
RightHand 12.242408 -0.000000 -47.237922
RightHandThumb1 -24.326973 -0.000000 -32.862282
LeftShoulder -20.421903 32.671008 11.134985
LeftArm 79.570870 -49.357497 -127.125015
LeftForeArm -4.109068 0.000000 25.646552
LeftHand -30.186116 -0.000000 102.196148
LeftHandThumb1 -26.253704 0.000000 33.147579
Head -0.890314 6.627932 -51.379508
442
root 25.933692 18.317274 -1.080653 -2.156721 26.237147 -27.722673
RightUpLeg 16.002314 -9.178514 -30.499924
RightLeg -0.445459 -0.000000 0.000000
RightFoot -15.828468 -12.701393 38.596699
RightToeBase 16.311450 -0.000000 -0.000000
LeftUpLeg -104.195205 30.531294 6.699831
LeftLeg 130.476260 -0.000000 -0.000000
LeftFoot -38.988018 10.968886 -13.479944
LeftToeBase -5.692703 -0.000000 0.000000
Spine 32.549951 -4.069882 -49.269478
RightShoulder -9.871058 3.480420 -49.824710
RightArm 1.308653 42.542775 -4.640701
RightForeArm 1.263244 -0.000000 18.936337
RightHand 12.323104 -0.000000 -47.401771
RightHandThumb1 -24.326973 -0.000000 -32.862282
LeftShoulder -20.560548 32.856164 11.117842
LeftArm 79.700414 -48.994058 -127.092475
LeftForeArm -4.213398 -0.000000 25.416575
LeftHand -30.093892 -0.000000 102.219882
LeftHandThumb1 -26.253704 0.000000 33.147579
Head -0.765607 6.543749 -51.479940
443
root 25.946533 18.309324 -1.073335 -2.086630 26.309013 -27.636014
RightUpLeg 16.026255 -9.140048 -30.568767
RightLeg -0.435288 -0.000000 0.000000
RightFoot -15.899242 -12.815051 38.590907
RightToeBase 16.299480 -0.000000 -0.000000
LeftUpLeg -104.273504 30.476950 6.625461
LeftLeg 130.534622 -0.000000 -0.000000
LeftFoot -38.841437 10.769893 -13.608870
LeftToeBase -5.832480 -0.000000 0.000000
Spine 32.575433 -3.989103 -49.322732
RightShoulder -9.917116 3.279770 -49.745955
RightArm 1.644508 42.854749 -4.525801
RightForeArm 1.058272 -0.000000 18.838712
RightHand 12.383679 -0.000000 -47.281545
RightHandThumb1 -24.326973 -0.000000 -32.862282
LeftShoulder -20.624698 33.029644 11.153731
LeftArm 79.826424 -48.699878 -127.113521
LeftForeArm -4.302220 -0.000000 25.237057
LeftHand -30.006056 0.000000 102.275144
LeftHandThumb1 -26.253704 0.000000 33.147579
Head -0.609778 6.568999 -51.519065
444
root 25.958732 18.299879 -1.065667 -2.013302 26.381066 -27.538354
RightUpLeg 16.047757 -9.103539 -30.653482
RightLeg -0.414015 -0.000000 0.000000
RightFoot -15.976738 -12.912881 38.576258
RightToeBase 16.319966 -0.000000 -0.000000
LeftUpLeg -104.351423 30.411057 6.556548
LeftLeg 130.601978 -0.000000 -0.000000
LeftFoot -38.663238 10.561286 -13.757630
LeftToeBase -6.056843 -0.000000 0.000000
Spine 32.585173 -3.900948 -49.394972
RightShoulder -9.390535 4.693714 -49.701806
RightArm 0.943555 41.010910 -5.423651
RightForeArm 1.205597 -0.000000 18.936460
RightHand 12.322484 -0.000000 -46.876010
RightHandThumb1 -24.326973 -0.000000 -32.862282
LeftShoulder -20.694591 33.052002 11.276112
LeftArm 79.888961 -48.449397 -127.175080
LeftForeArm -4.156453 -0.000000 25.009900
LeftHand -29.948767 -0.000000 102.299661
LeftHandThumb1 -26.253704 0.000000 33.147579
Head -0.440122 6.737501 -51.412705
445
root 25.970220 18.291682 -1.056773 -1.951646 26.454510 -27.448832
RightUpLeg 16.086619 -9.052065 -30.724437
RightLeg -0.407108 -0.000000 0.000000
RightFoot -16.062987 -13.017778 38.564190
RightToeBase 16.294273 -0.000000 -0.000000
LeftUpLeg -104.419040 30.357864 6.487841
LeftLeg 130.666788 -0.000000 -0.000000
LeftFoot -38.504136 10.369365 -13.876738
LeftToeBase -6.284794 -0.000000 0.000000
Spine 32.627318 -3.794315 -49.428362
RightShoulder -9.389929 4.712294 -49.705158
RightArm 1.119095 40.947108 -5.351418
RightForeArm 1.100983 -0.000000 18.875428
RightHand 12.563626 -0.000000 -46.946305
RightHandThumb1 -24.326973 -0.000000 -32.862282
LeftShoulder -20.688041 33.130223 11.342017
LeftArm 79.975379 -48.241209 -127.186428
LeftForeArm -4.211773 0.000000 24.856849
LeftHand -29.864051 -0.000000 102.364876
LeftHandThumb1 -26.253704 0.000000 33.147579
Head -0.312679 6.585909 -51.486725
